<svg viewBox="0 0 48 48" xml:space="preserve" xmlns="http://www.w3.org/2000/svg"><path d="M14 46c-3.309 0-6-2.691-6-6s2.691-6 6-6h6v6c0 3.196-2.804 6-6 6zm0-10c-2.206 0-4 1.794-4 4s1.794 4 4 4c2.289 0 4-2.112 4-4v-4h-4zM34 40c-3.309 0-6-2.691-6-6s2.691-6 6-6h6v6c0 3.196-2.804 6-6 6zm0-10c-2.206 0-4 1.794-4 4s1.794 4 4 4c2.289 0 4-2.112 4-4v-4h-4z" fill="#ffffff" class="fill-000000"></path><path d="M20 35h-2V10.323l22-8.8V29h-2V4.477l-18 7.2z" fill="#ffffff" class="fill-000000"></path><path d="m38.631 9.075.743 1.857-20.003 7.994-.743-1.857z" fill="#ffffff" class="fill-000000"></path></svg>