<svg viewBox="0 0 64 64" xml:space="preserve" xmlns="http://www.w3.org/2000/svg" enable-background="new 0 0 64 64"><path d="M3 13C3 7.5 7.5 3 13 3h38c5.5 0 10 4.5 10 10v38c0 5.5-4.5 10-10 10H13C7.5 61 3 56.5 3 51V13z" fill="#f1c81d" class="fill-ff6c58 fill-f1c81d"></path><path d="M21.2 0c-3.4 0-6 0-8 .2-2.2.1-3.9.5-5.6 1.3C5 2.9 2.9 5 1.5 7.6.7 9.3.3 11 .2 13.2c-.2 2-.2 4.6-.2 7.9v21.8c0 3.3 0 5.9.2 8 .2 2.1.5 3.9 1.4 5.5 1.3 2.6 3.4 4.7 6 6.1 1.6.8 3.4 1.2 5.5 1.4 2.1.2 4.7.2 8 .2H46l15-7V20h-1c0 12.2-7.7 22.8-19 28.2-3.5 2.3-9.8 3.8-17 3.8-11 0-19.9-3.6-20-7.9V21.2c0-3.4 0-5.8.2-7.7.2-1.9.4-3.1.9-4C6 7.6 7.6 6 9.5 5.1c1-.5 2.1-.8 4-.9 1.9-.2 4.3-.2 7.7-.2V0z" fill="#f1c81d" class="fill-fc3c44 fill-f1c81d"></path><path d="m22.8 16.3 22-4.1c.6-.1 1.2.4 1.2 1V42c0 3.3-2.7 6-6 6h-1.5C36 48 34 46 34 43.5c0-2.1 1.4-3.9 3.4-4.4l3.1-.8c.9-.2 1.5-1 1.5-1.9V23.2c0-.6-.5-1.1-1.2-1l-14 2.2c-.5.1-.8.5-.8 1V46c0 3.3-2.7 6-6 6h-1.5C16 52 14 50 14 47.5c0-2.1 1.4-3.9 3.4-4.4l3.1-.8c.9-.2 1.5-1 1.5-1.9V17.3c0-.5.3-.9.8-1z" fill="#1f1f1f" class="fill-ffffff"></path><path d="M50.5 4.2C48.6 4 46.2 4 42.8 4H20V0h22.9c3.3 0 5.9 0 8 .2 2.1.2 3.9.5 5.5 1.4 2.6 1.3 4.7 3.4 6.1 6 .8 1.6 1.2 3.4 1.4 5.5.2 2.1.2 4.7.2 8v21.8c0 3.3 0 5.9-.2 8-.2 2.1-.5 3.9-1.4 5.5-1.3 2.6-3.5 4.8-6.1 6.1-1.5.8-3.2 1.1-5.1 1.3-2 .2-4.4.2-7.3.2v-4c3 0 5.1 0 6.9-.2 1.7-.2 2.8-.4 3.7-.9 1.9-1 3.4-2.5 4.4-4.4.5-1 .8-2.1.9-4 .2-1.9.2-4.3.2-7.7V21.2c0-3.4 0-5.8-.2-7.7-.2-1.9-.4-3.1-.9-4-1-1.9-2.5-3.4-4.4-4.4-1-.5-2.2-.8-4.1-.9z" fill-rule="evenodd" clip-rule="evenodd" fill="#f1c81d" class="fill-314a52 fill-f1c81d"></path></svg>