<svg width="794" height="160" viewBox="0 0 794 160" fill="none" xmlns="http://www.w3.org/2000/svg">
<path d="M14.23 61.15C14.23 57.6367 13.9467 55.0867 13.38 53.5C12.8133 51.9133 11.6233 50.8367 9.81 50.27C7.99667 49.7033 5.10667 49.42 1.14 49.42C0.913334 49.42 0.8 49.08 0.8 48.4C0.8 47.72 0.913334 47.38 1.14 47.38C4.88 47.38 7.77 47.4367 9.81 47.55L22.22 47.72L34.46 47.55C36.6133 47.4367 39.56 47.38 43.3 47.38C43.64 47.38 43.81 47.72 43.81 48.4C43.81 49.08 43.64 49.42 43.3 49.42C39.56 49.42 36.7833 49.76 34.97 50.44C33.1567 51.0067 31.91 52.0833 31.23 53.67C30.55 55.2567 30.21 57.75 30.21 61.15V99.23C30.21 102.743 30.4933 105.293 31.06 106.88C31.6267 108.467 32.8167 109.543 34.63 110.11C36.4433 110.677 39.3333 110.96 43.3 110.96C43.64 110.96 43.81 111.3 43.81 111.98C43.81 112.66 43.64 113 43.3 113C39.56 113 36.67 112.943 34.63 112.83L22.22 112.66L9.98 112.83C7.82667 112.943 4.88 113 1.14 113C0.913334 113 0.8 112.66 0.8 111.98C0.8 111.3 0.913334 110.96 1.14 110.96C4.88 110.96 7.65667 110.677 9.47 110.11C11.2833 109.43 12.53 108.297 13.21 106.71C13.89 105.123 14.23 102.63 14.23 99.23V61.15ZM248.325 95.32C242.999 95.32 238.522 94.13 234.895 91.75C231.382 89.37 228.832 86.4233 227.245 82.91C225.659 79.2833 224.865 75.5433 224.865 71.69C224.865 63.87 227.812 57.5233 233.705 52.65C239.599 47.6633 247.305 45.17 256.825 45.17C268.045 45.17 276.885 48.6267 283.345 55.54C289.919 62.4533 293.205 71.86 293.205 83.76C293.205 93.96 290.712 104.16 285.725 114.36C280.852 124.56 273.769 133.683 264.475 141.73C255.182 149.89 244.189 155.897 231.495 159.75C231.155 159.863 230.815 159.637 230.475 159.07C230.249 158.503 230.362 158.107 230.815 157.88C240.449 153.46 248.665 147.283 255.465 139.35C262.265 131.53 267.365 122.973 270.765 113.68C274.165 104.5 275.865 95.5467 275.865 86.82C275.865 81.04 275.129 75.26 273.655 69.48C272.295 63.5867 269.972 58.6567 266.685 54.69C263.512 50.7233 259.432 48.74 254.445 48.74C246.172 48.74 242.035 54.9733 242.035 67.44C242.035 74.0133 243.225 79.2267 245.605 83.08C247.985 86.82 251.555 88.69 256.315 88.69C258.355 88.69 260.282 88.2933 262.095 87.5C264.022 86.7067 266.119 85.3467 268.385 83.42C268.499 83.3067 268.669 83.25 268.895 83.25C269.235 83.25 269.519 83.42 269.745 83.76C270.085 84.1 270.199 84.3833 270.085 84.61C267.479 88.1233 264.305 90.7867 260.565 92.6C256.825 94.4133 252.745 95.32 248.325 95.32ZM497.349 95.32C492.022 95.32 487.545 94.13 483.919 91.75C480.405 89.37 477.855 86.4233 476.269 82.91C474.682 79.2833 473.889 75.5433 473.889 71.69C473.889 63.87 476.835 57.5233 482.729 52.65C488.622 47.6633 496.329 45.17 505.849 45.17C517.069 45.17 525.909 48.6267 532.369 55.54C538.942 62.4533 542.229 71.86 542.229 83.76C542.229 93.96 539.735 104.16 534.749 114.36C529.875 124.56 522.792 133.683 513.499 141.73C504.205 149.89 493.212 155.897 480.519 159.75C480.179 159.863 479.839 159.637 479.499 159.07C479.272 158.503 479.385 158.107 479.839 157.88C489.472 153.46 497.689 147.283 504.489 139.35C511.289 131.53 516.389 122.973 519.789 113.68C523.189 104.5 524.889 95.5467 524.889 86.82C524.889 81.04 524.152 75.26 522.679 69.48C521.319 63.5867 518.995 58.6567 515.709 54.69C512.535 50.7233 508.455 48.74 503.469 48.74C495.195 48.74 491.059 54.9733 491.059 67.44C491.059 74.0133 492.249 79.2267 494.629 83.08C497.009 86.82 500.579 88.69 505.339 88.69C507.379 88.69 509.305 88.2933 511.119 87.5C513.045 86.7067 515.142 85.3467 517.409 83.42C517.522 83.3067 517.692 83.25 517.919 83.25C518.259 83.25 518.542 83.42 518.769 83.76C519.109 84.1 519.222 84.3833 519.109 84.61C516.502 88.1233 513.329 90.7867 509.589 92.6C505.849 94.4133 501.769 95.32 497.349 95.32ZM771.022 64.04C778.389 64.04 783.942 66.25 787.682 70.67C791.422 74.9767 793.292 80.0767 793.292 85.97C793.292 91.2967 791.706 96.2267 788.532 100.76C785.359 105.18 780.996 108.693 775.442 111.3C770.002 113.907 764.052 115.21 757.592 115.21C747.506 115.21 739.516 111.923 733.622 105.35C727.729 98.6633 724.782 89.4833 724.782 77.81C724.782 67.1567 727.276 56.73 732.262 46.53C737.249 36.2167 744.389 27.0367 753.682 18.99C763.089 10.9433 774.026 4.82333 786.492 0.629998C786.946 0.516659 787.286 0.743326 787.512 1.31C787.739 1.87667 787.682 2.27333 787.342 2.49999C777.596 7.37333 769.322 13.7767 762.522 21.71C755.722 29.53 750.622 38.0867 747.222 47.38C743.822 56.6733 742.122 66.0233 742.122 75.43C742.122 82.0033 742.916 88.01 744.502 93.45C746.202 98.89 748.582 103.197 751.642 106.37C754.702 109.543 758.216 111.13 762.182 111.13C766.376 111.13 769.719 109.373 772.212 105.86C774.706 102.233 775.952 97.2467 775.952 90.9C775.952 84.8933 774.762 80.1333 772.382 76.62C770.002 72.9933 766.489 71.18 761.842 71.18C759.802 71.18 757.876 71.5767 756.062 72.37C754.249 73.05 752.152 74.24 749.772 75.94C749.659 76.0533 749.489 76.11 749.262 76.11C748.922 76.11 748.582 75.94 748.242 75.6C747.902 75.26 747.789 74.9767 747.902 74.75C754.476 67.61 762.182 64.04 771.022 64.04Z" fill="white"/>
</svg>
