<svg width="1776" height="136" viewBox="0 0 1776 136" fill="none" xmlns="http://www.w3.org/2000/svg">
<path d="M33.62 92.31H82.58L83.77 97.07H31.07L33.62 92.31ZM123.89 133.96C124.457 133.96 124.74 134.3 124.74 134.98C124.74 135.66 124.457 136 123.89 136C121.623 136 118.11 135.887 113.35 135.66C108.363 135.433 104.793 135.32 102.64 135.32C99.8067 135.32 96.35 135.433 92.27 135.66C88.4167 135.887 85.3567 136 83.09 136C82.6367 136 82.41 135.66 82.41 134.98C82.41 134.3 82.6367 133.96 83.09 133.96C86.0367 133.96 88.1333 133.677 89.38 133.11C90.74 132.43 91.42 131.297 91.42 129.71C91.42 127.783 90.2867 124.553 88.02 120.02L53.51 51.85L61.84 37.23L28.01 111.86C26.5367 115.147 25.8 118.207 25.8 121.04C25.8 125.12 27.2167 128.293 30.05 130.56C32.9967 132.827 36.9067 133.96 41.78 133.96C42.3467 133.96 42.63 134.3 42.63 134.98C42.63 135.66 42.3467 136 41.78 136C39.74 136 36.7933 135.887 32.94 135.66C28.6333 135.433 24.8933 135.32 21.72 135.32C18.66 135.32 14.9767 135.433 10.67 135.66C6.81667 135.887 3.7 136 1.32 136C0.866667 136 0.64 135.66 0.64 134.98C0.64 134.3 0.866667 133.96 1.32 133.96C4.49333 133.96 7.15667 133.337 9.31 132.09C11.4633 130.73 13.6167 128.407 15.77 125.12C17.9233 121.72 20.4733 116.733 23.42 110.16L60.31 29.07C60.5367 28.73 61.0467 28.56 61.84 28.56C62.7467 28.56 63.2567 28.73 63.37 29.07L105.87 112.71C109.837 120.757 113.123 126.31 115.73 129.37C118.337 132.43 121.057 133.96 123.89 133.96ZM329.899 121.55C329.899 124.497 330.126 126.65 330.579 128.01C331.033 129.257 331.883 130.107 333.129 130.56C334.489 131.013 336.643 131.24 339.589 131.24H345.369C354.209 131.24 361.859 128.917 368.319 124.27C374.779 119.51 379.086 113.107 381.239 105.06C381.239 104.833 381.466 104.72 381.919 104.72C382.146 104.72 382.373 104.833 382.599 105.06C382.939 105.173 383.109 105.287 383.109 105.4C382.089 116.62 381.579 125.97 381.579 133.45C381.579 134.357 381.353 135.037 380.899 135.49C380.559 135.83 379.936 136 379.029 136H298.789C298.563 136 298.449 135.66 298.449 134.98C298.449 134.3 298.563 133.96 298.789 133.96C302.416 133.96 305.023 133.677 306.609 133.11C308.309 132.543 309.443 131.467 310.009 129.88C310.689 128.18 311.029 125.63 311.029 122.23V43.52C311.029 40.12 310.689 37.6267 310.009 36.04C309.443 34.4533 308.309 33.3767 306.609 32.81C304.909 32.13 302.303 31.79 298.789 31.79C298.563 31.79 298.449 31.45 298.449 30.77C298.449 30.09 298.563 29.75 298.789 29.75L307.459 29.92C312.673 30.1467 316.979 30.26 320.379 30.26C323.779 30.26 328.086 30.1467 333.299 29.92L341.969 29.75C342.309 29.75 342.479 30.09 342.479 30.77C342.479 31.45 342.309 31.79 341.969 31.79C338.456 31.79 335.849 32.13 334.149 32.81C332.449 33.3767 331.316 34.51 330.749 36.21C330.183 37.7967 329.899 40.29 329.899 43.69V121.55ZM577.916 33.66L582.846 34L580.976 114.41C580.863 120.53 582.053 125.347 584.546 128.86C587.153 132.26 590.78 133.96 595.426 133.96C595.766 133.96 595.936 134.3 595.936 134.98C595.936 135.66 595.766 136 595.426 136C592.366 136 589.986 135.943 588.286 135.83L578.936 135.66L568.226 135.83C566.413 135.943 563.976 136 560.916 136C560.576 136 560.406 135.66 560.406 134.98C560.406 134.3 560.576 133.96 560.916 133.96C565.563 133.96 569.246 132.203 571.966 128.69C574.686 125.177 576.103 120.417 576.216 114.41L577.916 33.66ZM697.936 133.96C698.163 133.96 698.276 134.3 698.276 134.98C698.276 135.66 698.163 136 697.936 136C694.083 136 691.023 135.943 688.756 135.83L676.176 135.66L663.426 135.83C661.273 135.943 658.326 136 654.586 136C654.246 136 654.076 135.66 654.076 134.98C654.076 134.3 654.246 133.96 654.586 133.96C658.213 133.96 660.876 133.677 662.576 133.11C664.39 132.43 665.58 131.297 666.146 129.71C666.713 128.123 666.883 125.63 666.656 122.23L662.746 46.75L671.416 33.15L628.066 134.81C627.84 135.263 627.386 135.49 626.706 135.49C626.026 135.49 625.573 135.263 625.346 134.81L577.576 43.86C575.31 39.6667 572.93 36.6067 570.436 34.68C568.056 32.7533 565.28 31.79 562.106 31.79C561.766 31.79 561.596 31.45 561.596 30.77C561.596 30.09 561.766 29.75 562.106 29.75L570.096 29.92C571.683 30.0333 573.723 30.09 576.216 30.09L585.226 29.92C586.246 29.8067 587.55 29.75 589.136 29.75C590.61 29.75 591.743 30.26 592.536 31.28C593.33 32.3 594.803 34.7367 596.956 38.59L635.036 109.99L626.536 125.29L666.316 34C666.996 32.4133 667.676 31.3367 668.356 30.77C669.15 30.09 670.17 29.75 671.416 29.75C672.436 29.75 673.57 29.8067 674.816 29.92C676.176 30.0333 677.706 30.09 679.406 30.09L689.436 29.92C691.023 29.8067 693.29 29.75 696.236 29.75C696.576 29.75 696.746 30.09 696.746 30.77C696.746 31.45 696.576 31.79 696.236 31.79C690.91 31.79 687.056 32.8667 684.676 35.02C682.296 37.1733 681.22 40.5167 681.446 45.05L685.526 122.23C685.753 125.743 686.15 128.293 686.716 129.88C687.396 131.467 688.53 132.543 690.116 133.11C691.816 133.677 694.423 133.96 697.936 133.96ZM879.058 136C878.718 136 878.548 135.66 878.548 134.98C878.548 134.3 878.718 133.96 879.058 133.96C882.685 133.96 885.291 133.677 886.878 133.11C888.578 132.543 889.711 131.467 890.278 129.88C890.845 128.18 891.128 125.63 891.128 122.23V43.52C891.128 40.12 890.845 37.6267 890.278 36.04C889.711 34.4533 888.578 33.3767 886.878 32.81C885.178 32.13 882.571 31.79 879.058 31.79C878.718 31.79 878.548 31.45 878.548 30.77C878.548 30.09 878.718 29.75 879.058 29.75H951.138C952.271 29.75 952.838 30.26 952.838 31.28L953.178 53.89C953.178 54.1167 952.838 54.2867 952.158 54.4C951.591 54.5133 951.251 54.4 951.138 54.06C949.325 47.4867 946.265 42.6133 941.958 39.44C937.651 36.2667 931.985 34.68 924.958 34.68H919.858C916.458 34.68 913.965 35.4167 912.378 36.89C910.791 38.3633 909.998 40.63 909.998 43.69V121.55C909.998 124.837 910.621 127.273 911.868 128.86C913.115 130.447 915.098 131.24 917.818 131.24H923.428C932.268 131.24 939.351 129.427 944.678 125.8C950.005 122.173 953.915 116.563 956.408 108.97C956.408 108.743 956.635 108.63 957.088 108.63C957.428 108.63 957.711 108.743 957.938 108.97C958.278 109.083 958.448 109.197 958.448 109.31C957.315 118.15 956.748 126.197 956.748 133.45C956.748 134.357 956.578 135.037 956.238 135.49C955.898 135.83 955.218 136 954.198 136H879.058ZM944.678 98.09C944.678 93.4433 942.865 89.8167 939.238 87.21C935.725 84.49 930.625 83.13 923.938 83.13H900.988V78.37H924.108C930.681 78.37 935.725 77.2367 939.238 74.97C942.751 72.7033 944.508 69.53 944.508 65.45C944.508 65.11 944.791 64.94 945.358 64.94C946.038 64.94 946.378 65.11 946.378 65.45L946.208 80.75L946.378 88.91C946.605 92.7633 946.718 95.8233 946.718 98.09C946.718 98.3167 946.378 98.43 945.698 98.43C945.018 98.43 944.678 98.3167 944.678 98.09ZM1225.99 136C1223.38 136 1218.56 131.297 1211.54 121.89C1204.51 112.37 1196.01 99.1667 1186.04 82.28L1201.68 77.52C1211.08 91.8 1218.9 102.963 1225.14 111.01C1231.48 119.057 1237.09 124.893 1241.97 128.52C1246.84 132.147 1251.6 133.96 1256.25 133.96C1256.47 133.96 1256.59 134.3 1256.59 134.98C1256.59 135.66 1256.47 136 1256.25 136H1225.99ZM1189.44 29.24C1199.75 29.24 1207.74 31.1667 1213.41 35.02C1219.07 38.76 1221.91 44.03 1221.91 50.83C1221.91 57.29 1220.04 63.1267 1216.3 68.34C1212.67 73.5533 1207.91 77.6333 1202.02 80.58C1196.12 83.4133 1189.95 84.83 1183.49 84.83C1179.07 84.83 1175.95 84.7733 1174.14 84.66V122.23C1174.14 125.743 1174.42 128.293 1174.99 129.88C1175.55 131.467 1176.63 132.543 1178.22 133.11C1179.92 133.677 1182.58 133.96 1186.21 133.96C1186.43 133.96 1186.55 134.3 1186.55 134.98C1186.55 135.66 1186.43 136 1186.21 136C1182.47 136 1179.52 135.943 1177.37 135.83L1164.45 135.66L1152.04 135.83C1149.77 135.943 1146.71 136 1142.86 136C1142.52 136 1142.35 135.66 1142.35 134.98C1142.35 134.3 1142.52 133.96 1142.86 133.96C1146.48 133.96 1149.09 133.677 1150.68 133.11C1152.38 132.543 1153.51 131.467 1154.08 129.88C1154.76 128.18 1155.1 125.63 1155.1 122.23V43.52C1155.1 40.12 1154.81 37.6267 1154.25 36.04C1153.68 34.4533 1152.55 33.3767 1150.85 32.81C1149.15 32.13 1146.54 31.79 1143.03 31.79C1142.8 31.79 1142.69 31.45 1142.69 30.77C1142.69 30.09 1142.8 29.75 1143.03 29.75L1152.04 29.92C1157.25 30.1467 1161.39 30.26 1164.45 30.26C1168.3 30.26 1172.32 30.09 1176.52 29.75C1177.99 29.6367 1179.8 29.5233 1181.96 29.41C1184.22 29.2967 1186.72 29.24 1189.44 29.24ZM1202.53 57.29C1202.53 47.9967 1201.17 41.5933 1198.45 38.08C1195.73 34.5667 1191.82 32.81 1186.72 32.81C1182.18 32.81 1178.95 33.66 1177.03 35.36C1175.1 37.06 1174.14 39.8933 1174.14 43.86V79.9C1176.86 80.3533 1180.14 80.58 1184 80.58C1190.57 80.58 1195.27 78.7667 1198.11 75.14C1201.05 71.4 1202.53 65.45 1202.53 57.29ZM1463.18 122.23C1463.18 125.743 1463.46 128.293 1464.03 129.88C1464.59 131.467 1465.67 132.543 1467.26 133.11C1468.96 133.677 1471.62 133.96 1475.25 133.96C1475.59 133.96 1475.76 134.3 1475.76 134.98C1475.76 135.66 1475.59 136 1475.25 136C1471.51 136 1468.56 135.943 1466.41 135.83L1453.49 135.66L1440.91 135.83C1438.64 135.943 1435.58 136 1431.73 136C1431.5 136 1431.39 135.66 1431.39 134.98C1431.39 134.3 1431.5 133.96 1431.73 133.96C1435.35 133.96 1438.02 133.677 1439.72 133.11C1441.42 132.543 1442.55 131.467 1443.12 129.88C1443.8 128.18 1444.14 125.63 1444.14 122.23V43.52C1444.14 40.12 1443.8 37.6267 1443.12 36.04C1442.55 34.4533 1441.42 33.3767 1439.72 32.81C1438.02 32.13 1435.35 31.79 1431.73 31.79C1431.5 31.79 1431.39 31.45 1431.39 30.77C1431.39 30.09 1431.5 29.75 1431.73 29.75L1440.91 29.92C1446.12 30.1467 1450.31 30.26 1453.49 30.26C1457 30.26 1461.36 30.1467 1466.58 29.92L1475.25 29.75C1475.59 29.75 1475.76 30.09 1475.76 30.77C1475.76 31.45 1475.59 31.79 1475.25 31.79C1471.73 31.79 1469.13 32.13 1467.43 32.81C1465.73 33.49 1464.59 34.68 1464.03 36.38C1463.46 37.9667 1463.18 40.46 1463.18 43.86V122.23ZM1436.83 20.74C1436.37 20.74 1436.09 20.5133 1435.98 20.06C1435.86 19.4933 1435.98 19.0967 1436.32 18.87C1439.6 16.49 1444.19 12.75 1450.09 7.64999C1453.49 4.70333 1456.04 2.55 1457.74 1.18999C1458.3 0.623327 1460.29 0.849994 1463.69 1.86999C1467.2 2.77666 1470.26 3.90999 1472.87 5.26999C1475.59 6.51666 1476.27 7.25333 1474.91 7.47999C1467.88 9.17999 1461.42 11.1067 1455.53 13.26C1449.75 15.3 1443.63 17.7367 1437.17 20.57L1436.83 20.74ZM1684.31 92.31H1733.27L1734.46 97.07H1681.76L1684.31 92.31ZM1774.58 133.96C1775.15 133.96 1775.43 134.3 1775.43 134.98C1775.43 135.66 1775.15 136 1774.58 136C1772.32 136 1768.8 135.887 1764.04 135.66C1759.06 135.433 1755.49 135.32 1753.33 135.32C1750.5 135.32 1747.04 135.433 1742.96 135.66C1739.11 135.887 1736.05 136 1733.78 136C1733.33 136 1733.1 135.66 1733.1 134.98C1733.1 134.3 1733.33 133.96 1733.78 133.96C1736.73 133.96 1738.83 133.677 1740.07 133.11C1741.43 132.43 1742.11 131.297 1742.11 129.71C1742.11 127.783 1740.98 124.553 1738.71 120.02L1704.2 51.85L1712.53 37.23L1678.7 111.86C1677.23 115.147 1676.49 118.207 1676.49 121.04C1676.49 125.12 1677.91 128.293 1680.74 130.56C1683.69 132.827 1687.6 133.96 1692.47 133.96C1693.04 133.96 1693.32 134.3 1693.32 134.98C1693.32 135.66 1693.04 136 1692.47 136C1690.43 136 1687.49 135.887 1683.63 135.66C1679.33 135.433 1675.59 135.32 1672.41 135.32C1669.35 135.32 1665.67 135.433 1661.36 135.66C1657.51 135.887 1654.39 136 1652.01 136C1651.56 136 1651.33 135.66 1651.33 134.98C1651.33 134.3 1651.56 133.96 1652.01 133.96C1655.19 133.96 1657.85 133.337 1660 132.09C1662.16 130.73 1664.31 128.407 1666.46 125.12C1668.62 121.72 1671.17 116.733 1674.11 110.16L1711 29.07C1711.23 28.73 1711.74 28.56 1712.53 28.56C1713.44 28.56 1713.95 28.73 1714.06 29.07L1756.56 112.71C1760.53 120.757 1763.82 126.31 1766.42 129.37C1769.03 132.43 1771.75 133.96 1774.58 133.96Z" fill="white"/>
</svg>
