<svg width="483" height="115" viewBox="0 0 483 115" fill="none" xmlns="http://www.w3.org/2000/svg">
<path d="M64.59 3.87999C69.9167 3.87999 75.3 4.33333 80.74 5.24C86.2933 6.03333 90.7133 7.10999 94 8.47C95.02 8.81 95.6433 9.26333 95.87 9.83C96.21 10.2833 96.4367 11.1333 96.55 12.38L98.76 36.01C98.76 36.35 98.4767 36.5767 97.91 36.69C97.3433 36.8033 96.9467 36.6333 96.72 36.18C93.5467 26.8867 89.0133 19.8033 83.12 14.93C77.2267 9.94333 70.1433 7.45 61.87 7.45C54.1633 7.45 47.25 9.54667 41.13 13.74C35.1233 17.82 30.3633 23.7133 26.85 31.42C23.45 39.1267 21.75 48.1367 21.75 58.45C21.75 68.8767 23.5067 78.0567 27.02 85.99C30.6467 93.81 35.5767 99.8733 41.81 104.18C48.1567 108.373 55.41 110.47 63.57 110.47C71.39 110.47 77.9633 108.373 83.29 104.18C88.6167 99.8733 93.66 92.8467 98.42 83.1C98.5333 82.76 98.8733 82.6467 99.44 82.76C100.007 82.8733 100.29 83.1 100.29 83.44L97.74 104.52C97.5133 105.88 97.2867 106.787 97.06 107.24C96.8333 107.58 96.21 107.977 95.19 108.43C84.7633 112.17 74.2233 114.04 63.57 114.04C51.4433 114.04 40.5633 111.773 30.93 107.24C21.41 102.593 13.93 96.1333 8.49 87.86C3.05 79.5867 0.33 70.18 0.33 59.64C0.33 48.8733 3.10667 39.2967 8.66 30.91C14.3267 22.41 22.0333 15.78 31.78 11.02C41.64 6.25999 52.5767 3.87999 64.59 3.87999ZM214.813 112C212.206 112 207.39 107.297 200.363 97.89C193.336 88.37 184.836 75.1667 174.863 58.28L190.503 53.52C199.91 67.8 207.73 78.9633 213.963 87.01C220.31 95.0567 225.92 100.893 230.793 104.52C235.666 108.147 240.426 109.96 245.073 109.96C245.3 109.96 245.413 110.3 245.413 110.98C245.413 111.66 245.3 112 245.073 112H214.813ZM178.263 5.24C188.576 5.24 196.566 7.16666 202.233 11.02C207.9 14.76 210.733 20.03 210.733 26.83C210.733 33.29 208.863 39.1267 205.123 44.34C201.496 49.5533 196.736 53.6333 190.843 56.58C184.95 59.4133 178.773 60.83 172.313 60.83C167.893 60.83 164.776 60.7733 162.963 60.66V98.23C162.963 101.743 163.246 104.293 163.813 105.88C164.38 107.467 165.456 108.543 167.043 109.11C168.743 109.677 171.406 109.96 175.033 109.96C175.26 109.96 175.373 110.3 175.373 110.98C175.373 111.66 175.26 112 175.033 112C171.293 112 168.346 111.943 166.193 111.83L153.273 111.66L140.863 111.83C138.596 111.943 135.536 112 131.683 112C131.343 112 131.173 111.66 131.173 110.98C131.173 110.3 131.343 109.96 131.683 109.96C135.31 109.96 137.916 109.677 139.503 109.11C141.203 108.543 142.336 107.467 142.903 105.88C143.583 104.18 143.923 101.63 143.923 98.23V19.52C143.923 16.12 143.64 13.6267 143.073 12.04C142.506 10.4533 141.373 9.37666 139.673 8.80999C137.973 8.12999 135.366 7.78999 131.853 7.78999C131.626 7.78999 131.513 7.45 131.513 6.77C131.513 6.09 131.626 5.75 131.853 5.75L140.863 5.92C146.076 6.14666 150.213 6.25999 153.273 6.25999C157.126 6.25999 161.15 6.09 165.343 5.75C166.816 5.63666 168.63 5.52333 170.783 5.40999C173.05 5.29666 175.543 5.24 178.263 5.24ZM191.353 33.29C191.353 23.9967 189.993 17.5933 187.273 14.08C184.553 10.5667 180.643 8.80999 175.543 8.80999C171.01 8.80999 167.78 9.65999 165.853 11.36C163.926 13.06 162.963 15.8933 162.963 19.86V55.9C165.683 56.3533 168.97 56.58 172.823 56.58C179.396 56.58 184.1 54.7667 186.933 51.14C189.88 47.4 191.353 41.45 191.353 33.29ZM348.519 27.51C348.519 21.39 347.103 16.5733 344.269 13.06C341.549 9.54666 337.696 7.78999 332.709 7.78999C332.483 7.78999 332.369 7.45 332.369 6.77C332.369 6.09 332.483 5.75 332.709 5.75L340.869 5.92C345.176 6.14666 348.633 6.25999 351.239 6.25999C353.393 6.25999 356.509 6.14666 360.589 5.92L368.409 5.75C368.636 5.75 368.749 6.09 368.749 6.77C368.749 7.45 368.636 7.78999 368.409 7.78999C363.989 7.78999 360.533 9.54666 358.039 13.06C355.546 16.5733 354.299 21.39 354.299 27.51V74.77C354.299 82.7033 352.543 89.6733 349.029 95.68C345.516 101.687 340.529 106.333 334.069 109.62C327.723 112.793 320.356 114.38 311.969 114.38C303.583 114.38 296.159 112.793 289.699 109.62C283.239 106.447 278.139 101.857 274.399 95.85C270.773 89.73 268.959 82.59 268.959 74.43V19.52C268.959 16.12 268.619 13.6267 267.939 12.04C267.373 10.4533 266.239 9.37666 264.539 8.80999C262.953 8.12999 260.403 7.78999 256.889 7.78999C256.549 7.78999 256.379 7.45 256.379 6.77C256.379 6.09 256.549 5.75 256.889 5.75L265.899 5.92C271.113 6.14666 275.249 6.25999 278.309 6.25999C281.709 6.25999 286.016 6.14666 291.229 5.92L299.899 5.75C300.239 5.75 300.409 6.09 300.409 6.77C300.409 7.45 300.239 7.78999 299.899 7.78999C296.386 7.78999 293.779 8.12999 292.079 8.80999C290.493 9.49 289.359 10.68 288.679 12.38C288.113 13.9667 287.829 16.46 287.829 19.86V68.48C287.829 81.9667 290.493 91.94 295.819 98.4C301.146 104.86 308.683 108.09 318.429 108.09C327.836 108.09 335.203 105.257 340.529 99.59C345.856 93.81 348.519 85.5933 348.519 74.94V27.51ZM455.858 10C456.198 9.43333 456.312 9.09333 456.198 8.98C456.198 8.75333 455.802 8.63999 455.008 8.63999C442.088 8.63999 432.228 9.14999 425.428 10.17C418.742 11.0767 413.245 13.1167 408.938 16.29C404.632 19.35 400.892 24.1667 397.718 30.74C397.605 30.8533 397.378 30.91 397.038 30.91C396.018 30.91 395.565 30.6833 395.678 30.23L402.478 0.649995C402.478 0.536663 402.705 0.479997 403.158 0.479997C404.292 0.479997 404.745 0.649995 404.518 0.98999C404.405 1.32999 404.348 1.78333 404.348 2.34999C404.348 3.71 404.972 4.61666 406.218 5.07C407.578 5.52333 410.242 5.75 414.208 5.75H476.258C476.825 5.75 477.222 6.03333 477.448 6.6C477.788 7.16667 477.788 7.62 477.448 7.95999L418.628 107.41C418.175 107.977 418.005 108.373 418.118 108.6C418.232 108.713 418.628 108.77 419.308 108.77H453.648C457.728 108.77 461.695 107.75 465.548 105.71C469.402 103.557 472.688 100.723 475.408 97.21C478.128 93.6967 479.828 89.9567 480.508 85.99C480.622 85.65 480.962 85.48 481.528 85.48C482.095 85.48 482.378 85.65 482.378 85.99L479.998 110.64C479.998 110.98 479.828 111.377 479.488 111.83C479.262 112.17 478.922 112.34 478.468 112.34C461.582 112.113 434.438 112 397.038 112C396.585 112 396.245 111.773 396.018 111.32C395.792 110.753 395.848 110.243 396.188 109.79L455.858 10Z" fill="white"/>
</svg>
