<svg width="536" height="116" viewBox="0 0 536 116" fill="none" xmlns="http://www.w3.org/2000/svg">
<path d="M17.58 22.92C17.58 27 18.6 30.6267 20.64 33.8C22.7933 36.9733 25.4 39.75 28.46 42.13C31.52 44.51 35.6567 47.4 40.87 50.8C46.5367 54.4267 51.07 57.6 54.47 60.32C57.87 63.04 60.76 66.3833 63.14 70.35C65.52 74.2033 66.71 78.68 66.71 83.78C66.71 89.6733 65.1233 94.9433 61.95 99.59C58.7767 104.123 54.3567 107.693 48.69 110.3C43.1367 112.793 36.9033 114.04 29.99 114.04C25.0033 114.04 19.6767 113.36 14.01 112C8.45667 110.527 4.71667 108.94 2.79 107.24C2.22333 106.787 1.77 106.39 1.43 106.05C1.20333 105.597 1.09 104.917 1.09 104.01L0.58 76.98V76.81C0.58 76.3567 0.863334 76.13 1.43 76.13C1.99667 76.0167 2.33667 76.1867 2.45 76.64C5.85 83.5533 8.79667 89.1633 11.29 93.47C13.8967 97.7767 17.1267 101.573 20.98 104.86C24.9467 108.147 29.4233 109.79 34.41 109.79C38.9433 109.79 42.6833 108.6 45.63 106.22C48.5767 103.727 50.05 99.5333 50.05 93.64C50.05 88.6533 48.9167 84.29 46.65 80.55C44.4967 76.81 41.8333 73.6367 38.66 71.03C35.4867 68.4233 31.1233 65.3067 25.57 61.68C20.13 58.1667 15.88 55.1633 12.82 52.67C9.87333 50.1767 7.32333 47.1733 5.17 43.66C3.01667 40.1467 1.94 36.01 1.94 31.25C1.94 25.2433 3.64 20.2 7.04 16.12C10.5533 11.9267 15.03 8.86666 20.47 6.93999C25.91 4.89999 31.6333 3.87999 37.64 3.87999C41.6067 3.87999 45.63 4.27666 49.71 5.07C53.79 5.75 57.0767 6.6 59.57 7.62C60.59 8.07333 61.27 8.58333 61.61 9.15C61.95 9.60333 62.12 10.2267 62.12 11.02V36.01C62.12 36.35 61.8367 36.6333 61.27 36.86C60.7033 36.9733 60.3633 36.86 60.25 36.52L58.89 33.29C56.0567 26.15 52.7133 20.0867 48.86 15.1C45.12 10.1133 39.85 7.62 33.05 7.62C28.5167 7.62 24.7767 8.92333 21.83 11.53C18.9967 14.1367 17.58 17.9333 17.58 22.92ZM105.41 68.31H154.37L155.56 73.07H102.86L105.41 68.31ZM195.68 109.96C196.247 109.96 196.53 110.3 196.53 110.98C196.53 111.66 196.247 112 195.68 112C193.414 112 189.9 111.887 185.14 111.66C180.154 111.433 176.584 111.32 174.43 111.32C171.597 111.32 168.14 111.433 164.06 111.66C160.207 111.887 157.147 112 154.88 112C154.427 112 154.2 111.66 154.2 110.98C154.2 110.3 154.427 109.96 154.88 109.96C157.827 109.96 159.924 109.677 161.17 109.11C162.53 108.43 163.21 107.297 163.21 105.71C163.21 103.783 162.077 100.553 159.81 96.02L125.3 27.85L133.63 13.23L99.8002 87.86C98.3269 91.1467 97.5902 94.2067 97.5902 97.04C97.5902 101.12 99.0069 104.293 101.84 106.56C104.787 108.827 108.697 109.96 113.57 109.96C114.137 109.96 114.42 110.3 114.42 110.98C114.42 111.66 114.137 112 113.57 112C111.53 112 108.584 111.887 104.73 111.66C100.424 111.433 96.6836 111.32 93.5102 111.32C90.4502 111.32 86.7669 111.433 82.4602 111.66C78.6069 111.887 75.4902 112 73.1102 112C72.6569 112 72.4302 111.66 72.4302 110.98C72.4302 110.3 72.6569 109.96 73.1102 109.96C76.2836 109.96 78.9469 109.337 81.1002 108.09C83.2536 106.73 85.4069 104.407 87.5602 101.12C89.7136 97.72 92.2636 92.7333 95.2102 86.16L132.1 5.07C132.327 4.73 132.837 4.56 133.63 4.56C134.537 4.56 135.047 4.73 135.16 5.07L177.66 88.71C181.627 96.7567 184.914 102.31 187.52 105.37C190.127 108.43 192.847 109.96 195.68 109.96ZM215.37 9.65999L220.47 10V90.41C220.47 96.4167 221.716 101.177 224.21 104.69C226.703 108.203 230.16 109.96 234.58 109.96C234.806 109.96 234.92 110.3 234.92 110.98C234.92 111.66 234.806 112 234.58 112C231.406 112 228.97 111.943 227.27 111.83L218.09 111.66L207.55 111.83C205.623 111.943 202.846 112 199.22 112C198.88 112 198.71 111.66 198.71 110.98C198.71 110.3 198.88 109.96 199.22 109.96C204.206 109.96 208.116 108.203 210.95 104.69C213.896 101.177 215.37 96.4167 215.37 90.41V9.65999ZM302.07 114.55C302.07 114.89 301.786 115.117 301.22 115.23C300.766 115.343 300.426 115.287 300.2 115.06L216.39 19.69C212.423 15.1567 209.023 12.04 206.19 10.34C203.356 8.63999 200.466 7.78999 197.52 7.78999C197.293 7.78999 197.18 7.45 197.18 6.77C197.18 6.09 197.293 5.75 197.52 5.75L204.66 5.92C206.133 6.03333 208.286 6.09 211.12 6.09L224.04 5.92C225.626 5.80667 227.553 5.75 229.82 5.75C230.726 5.75 231.406 5.97666 231.86 6.42999C232.313 6.88333 233.106 7.84666 234.24 9.31999C236.166 11.9267 237.526 13.6833 238.32 14.59L300.71 86.5L302.07 114.55ZM302.07 114.55L297.14 109.45V27.51C297.14 21.39 295.893 16.5733 293.4 13.06C290.906 9.54666 287.45 7.78999 283.03 7.78999C282.803 7.78999 282.69 7.45 282.69 6.77C282.69 6.09 282.803 5.75 283.03 5.75L290.34 5.92C293.966 6.14666 297.026 6.25999 299.52 6.25999C301.786 6.25999 304.96 6.14666 309.04 5.92L316.69 5.75C316.916 5.75 317.03 6.09 317.03 6.77C317.03 7.45 316.916 7.78999 316.69 7.78999C312.156 7.78999 308.586 9.60333 305.98 13.23C303.373 16.7433 302.07 21.5033 302.07 27.51V114.55ZM354.829 9.65999C341.343 9.65999 331.653 18.4433 325.759 36.01C325.646 36.35 325.306 36.52 324.739 36.52C324.173 36.4067 323.889 36.18 323.889 35.84C324.343 31.3067 324.853 25.47 325.419 18.33C325.986 11.0767 326.269 5.63666 326.269 2.01C326.269 1.44333 326.553 1.16 327.119 1.16C327.799 1.16 328.139 1.44333 328.139 2.01C328.139 4.50333 331.369 5.75 337.829 5.75C347.576 6.09 358.966 6.25999 371.999 6.25999C378.686 6.25999 385.769 6.14666 393.249 5.92L404.809 5.75C409.116 5.75 412.233 5.46666 414.159 4.89999C416.199 4.33332 417.503 3.19999 418.069 1.49999C418.183 1.04666 418.523 0.819993 419.089 0.819993C419.769 0.819993 420.109 1.04666 420.109 1.49999C419.769 4.9 419.373 10.34 418.919 17.82C418.579 25.3 418.409 31.3067 418.409 35.84C418.409 36.18 418.126 36.35 417.559 36.35C416.993 36.35 416.653 36.18 416.539 35.84C414.839 27.1133 411.666 20.5967 407.019 16.29C402.373 11.87 396.649 9.65999 389.849 9.65999C386.563 9.65999 384.353 10.3967 383.219 11.87C382.199 13.23 381.689 15.8933 381.689 19.86V98.23C381.689 101.743 382.029 104.293 382.709 105.88C383.389 107.467 384.693 108.543 386.619 109.11C388.546 109.677 391.606 109.96 395.799 109.96C396.139 109.96 396.309 110.3 396.309 110.98C396.309 111.66 396.139 112 395.799 112C391.719 112 388.489 111.943 386.109 111.83L371.999 111.66L358.229 111.83C355.849 111.943 352.563 112 348.369 112C348.029 112 347.859 111.66 347.859 110.98C347.859 110.3 348.029 109.96 348.369 109.96C352.449 109.96 355.453 109.677 357.379 109.11C359.419 108.543 360.779 107.467 361.459 105.88C362.253 104.18 362.649 101.63 362.649 98.23V19.52C362.649 15.6667 362.139 13.06 361.119 11.7C360.099 10.34 358.003 9.65999 354.829 9.65999ZM444.295 68.31H493.255L494.445 73.07H441.745L444.295 68.31ZM534.565 109.96C535.131 109.96 535.415 110.3 535.415 110.98C535.415 111.66 535.131 112 534.565 112C532.298 112 528.785 111.887 524.025 111.66C519.038 111.433 515.468 111.32 513.315 111.32C510.481 111.32 507.025 111.433 502.945 111.66C499.091 111.887 496.031 112 493.765 112C493.311 112 493.085 111.66 493.085 110.98C493.085 110.3 493.311 109.96 493.765 109.96C496.711 109.96 498.808 109.677 500.055 109.11C501.415 108.43 502.095 107.297 502.095 105.71C502.095 103.783 500.961 100.553 498.695 96.02L464.185 27.85L472.515 13.23L438.685 87.86C437.211 91.1467 436.475 94.2067 436.475 97.04C436.475 101.12 437.891 104.293 440.725 106.56C443.671 108.827 447.581 109.96 452.455 109.96C453.021 109.96 453.305 110.3 453.305 110.98C453.305 111.66 453.021 112 452.455 112C450.415 112 447.468 111.887 443.615 111.66C439.308 111.433 435.568 111.32 432.395 111.32C429.335 111.32 425.651 111.433 421.345 111.66C417.491 111.887 414.375 112 411.995 112C411.541 112 411.315 111.66 411.315 110.98C411.315 110.3 411.541 109.96 411.995 109.96C415.168 109.96 417.831 109.337 419.985 108.09C422.138 106.73 424.291 104.407 426.445 101.12C428.598 97.72 431.148 92.7333 434.095 86.16L470.985 5.07C471.211 4.73 471.721 4.56 472.515 4.56C473.421 4.56 473.931 4.73 474.045 5.07L516.545 88.71C520.511 96.7567 523.798 102.31 526.405 105.37C529.011 108.43 531.731 109.96 534.565 109.96Z" fill="white"/>
</svg>
