<svg viewBox="0 0 100 100" xml:space="preserve" xmlns="http://www.w3.org/2000/svg" enable-background="new 0 0 100 100"><g id="Layer_1"><path d="M78 47.3c0 15.1-12.3 27.3-27.5 27.3-4.8 0-9.3-1.2-13.3-3.4L22 76l5-14.6c-2.5-4.1-3.9-8.9-3.9-14.1C23 32.2 35.3 20 50.5 20S78 32.2 78 47.3zM50.5 24.4c-12.7 0-23.1 10.3-23.1 22.9 0 5 1.6 9.7 4.4 13.4l-2.9 8.5 8.9-2.8c3.7 2.4 8 3.8 12.7 3.8 12.7 0 23.1-10.3 23.1-22.9S63.2 24.4 50.5 24.4zm13.9 29.2c-.2-.3-.6-.4-1.3-.8-.7-.3-4-2-4.6-2.2-.6-.2-1.1-.3-1.5.3-.4.7-1.7 2.2-2.1 2.6-.4.4-.8.5-1.5.2s-2.8-1-5.4-3.3c-2-1.8-3.4-4-3.7-4.6-.4-.7 0-1 .3-1.4.3-.3.7-.8 1-1.2.3-.4.4-.7.7-1.1.2-.4.1-.8-.1-1.2-.2-.3-1.5-3.6-2.1-5-.6-1.3-1.1-1.1-1.5-1.1-.4 0-.8-.1-1.3-.1-.4 0-1.2.2-1.8.8-.6.7-2.4 2.3-2.4 5.6s2.4 6.5 2.8 6.9c.3.4 4.7 7.4 11.5 10.1 6.9 2.7 6.9 1.8 8.1 1.7 1.2-.1 4-1.6 4.5-3.2.5-1.4.5-2.8.4-3z" id="WhatsApp" fill-rule="evenodd" clip-rule="evenodd" fill="#cc994e" class="fill-000000"></path></g></svg>