<svg viewBox="0 0 64 64" xml:space="preserve" xmlns="http://www.w3.org/2000/svg" enable-background="new 0 0 64 64"><path d="M54.996 16.684h0a2.025 2.025 0 0 0-2.337-1.478c-1.698.32-3.128.607-4.738.925a9.469 9.469 0 0 0-6.933-3.01c-5.244 0-9.496 4.268-9.496 9.532v.14c.016 1.09-.902 1.972-1.981 1.828-6.978-.933-13.112-4.537-17.35-9.755a9.51 9.51 0 0 0-1.286 4.793 9.536 9.536 0 0 0 4.225 7.934 9.444 9.444 0 0 1-4.302-1.193s0 0 0 0a9.531 9.531 0 0 0 7.618 9.467 9.516 9.516 0 0 1-4.29.162c1.21 3.787 4.717 6.544 8.872 6.62a19.01 19.01 0 0 1-11.795 4.081 19.13 19.13 0 0 1-2.266-.134 26.805 26.805 0 0 0 14.56 4.283c17.47 0 27.022-14.524 27.022-27.121l-.001-.267a1.967 1.967 0 0 1 .745-1.556 19.298 19.298 0 0 0 3.43-3.578 1.98 1.98 0 0 0 .303-1.673z" fill="none" stroke="#bd9500" stroke-width="4" stroke-linecap="round" stroke-linejoin="round" class="stroke-000000"></path></svg>